<svg width="81" height="81" viewBox="0 0 81 81" fill="none" xmlns="http://www.w3.org/2000/svg">
<path d="M57.0079 43.7696L56.2692 46.5304C55.2734 50.2532 52.1556 53.291 45.3335 57.186C34.8356 63.1794 18.1802 70.1968 14.4556 70.1968C11.6896 70.1968 16.3901 74.0203 22.7879 76.976C31.0503 80.793 39.8012 81.8957 49.0037 80.279L53.1956 79.543L53.0174 72.6141C52.8023 64.151 53.2596 63.9046 58.1521 69.8326C60.0343 72.1132 61.9268 73.9977 62.357 74.0215C63.6447 74.0928 71.3175 66.5172 73.9049 62.6196C76.7366 58.3539 79.6477 51.1527 80.2871 46.83L80.7391 43.7696H57.0079ZM21.7186 45.5335C20.9697 45.576 20.0134 45.7752 18.7044 46.0604C16.3997 46.5624 11.2512 47.3216 7.26239 47.7468C3.27358 48.172 0.0227154 48.6825 0.0381877 48.8831C0.0536599 49.0836 0.416312 50.8871 0.844034 52.8886C1.56464 56.2606 1.90648 56.7391 5.49056 59.4276C12.0148 64.3216 18.3375 65.4632 25.9312 63.1181C30.2623 61.7805 35.938 57.564 34.3202 56.8864C32.3571 56.0642 26.8551 51.2 25.8873 49.4305C24.4171 46.7426 23.7974 45.701 22.403 45.5464C22.1939 45.5233 21.9682 45.5198 21.7186 45.5335Z" fill="url(#paint0_linear_189_189)"/>
<path d="M42.7403 0.00067705C41.6062 0.0059661 40.3032 0.046852 38.7214 0.116932C34.3758 0.30948 29.7002 0.92516 27.4912 1.59411L23.7073 2.7408L24.1413 6.97875C24.3801 9.31023 24.7457 12.45 24.9523 13.9567C25.483 17.8283 24.3672 17.5361 19.6006 12.5545L15.6385 8.41464L12.5495 11.4156C6.02524 17.756 0.884053 28.4198 0.16991 37.0938C-0.215667 41.7767 -0.819091 41.4221 9.35707 42.4784C13.2573 42.8832 17.0293 43.2985 17.7384 43.4029C18.4475 43.5074 19.9281 43.6336 21.0289 43.6819L23.0306 43.7696L23.4051 39.3199C23.9005 33.4125 26.1472 29.0004 30.1593 26.0611C35.17 22.3902 53.6251 14.3445 60.6084 12.7868C69.3827 10.8297 69.0186 11.0949 66.239 8.67027C62.7115 5.59322 57.0973 2.78747 51.2688 1.18865C48.0156 0.296239 46.1426 -0.0166446 42.7403 0.00067705ZM62.7496 16.733C62.4249 16.7277 62.0982 16.7324 61.7681 16.7435C60.0077 16.8016 58.1671 17.0816 56.2201 17.5803C51.6311 18.7558 45.7803 21.1366 45.7803 21.8286C45.7803 22.0826 47.4479 23.5899 49.4867 25.1756C53.7876 28.5207 56.5632 33.0899 57.119 37.7396C57.6691 42.3421 57.8247 42.6287 59.4771 42.1351C60.2766 41.8963 63.5412 40.8766 66.7323 39.8703C69.9234 38.8639 74.2751 37.5586 76.4025 36.9675C78.5298 36.3764 80.4898 35.6921 80.7571 35.4464C81.4426 34.8162 80.5352 25.0775 79.7911 25.0775C79.4544 25.0775 77.8277 23.8874 76.1778 22.4329C71.8963 18.6587 67.619 16.806 62.7496 16.733Z" fill="url(#paint1_linear_189_189)"/>
<defs>
<linearGradient id="paint0_linear_189_189" x1="40.5" y1="0" x2="40.5" y2="43.7696" gradientUnits="userSpaceOnUse">
<stop stop-color="#0FC37D"/>
<stop offset="0.975" stop-color="#08A3A1"/>
<stop offset="1" stop-color="#0186C1"/>
</linearGradient>
<linearGradient id="paint1_linear_189_189" x1="40.5" y1="0" x2="40.5" y2="43.7696" gradientUnits="userSpaceOnUse">
<stop stop-color="#0FC37D"/>
<stop offset="0.975" stop-color="#08A3A1"/>
<stop offset="1" stop-color="#0186C1"/>
</linearGradient>
</defs>
</svg>
